<?xml version="1.0" encoding="UTF-8"?> <svg xmlns="http://www.w3.org/2000/svg" xmlns:xlink="http://www.w3.org/1999/xlink" width="200px" height="78px" viewBox="0 0 201 78" version="1.1"><g id="surface1"><path style=" stroke:none;fill-rule:nonzero;fill:rgb(7.058824%,8.235294%,9.019608%);fill-opacity:1;" d="M 84.609375 70.90625 C 80.792969 75.550781 75.378906 77.859375 68.394531 77.859375 C 61.410156 77.859375 55.832031 75.589844 52.246094 71.054688 C 48.660156 66.515625 46.855469 60.78125 46.855469 53.867188 C 46.855469 46.535156 49.164062 40.339844 53.757812 35.277344 C 58.347656 30.214844 64.265625 27.671875 71.519531 27.671875 C 75.671875 27.671875 79.742188 29.015625 83.707031 31.707031 L 83.707031 13.15625 C 83.707031 11.746094 83.246094 10.675781 82.300781 9.980469 C 81.359375 9.269531 80.414062 8.660156 79.492188 8.113281 C 78.546875 7.566406 78.085938 6.832031 78.085938 5.886719 C 78.085938 4.605469 78.882812 3.660156 80.496094 3.070312 C 81.714844 2.609375 83.8125 1.976562 86.832031 1.199219 C 89.851562 0.421875 91.96875 0.046875 93.164062 0.046875 C 94.570312 0.046875 95.535156 0.277344 96.039062 0.757812 C 96.542969 1.222656 96.792969 2.210938 96.792969 3.679688 L 96.792969 67.082031 C 96.792969 68.21875 97.046875 69.164062 97.550781 69.898438 C 98.054688 70.632812 98.597656 71.136719 99.207031 71.410156 C 99.816406 71.683594 100.359375 72.019531 100.863281 72.417969 C 101.367188 72.820312 101.617188 73.257812 101.617188 73.722656 C 101.617188 74.855469 101.304688 75.675781 100.652344 76.136719 C 100.023438 76.601562 98.722656 76.851562 96.773438 76.851562 L 89.328125 76.851562 C 89.328125 76.851562 84.585938 76.851562 84.585938 70.90625 Z M 83.707031 61.535156 L 83.707031 43.804688 C 83.707031 40.78125 82.699219 38.40625 80.6875 36.703125 C 78.671875 34.980469 76.15625 34.140625 73.136719 34.140625 C 69.445312 34.140625 66.464844 35.695312 64.179688 38.785156 C 61.894531 41.875 60.761719 46.472656 60.761719 52.585938 C 60.761719 58.699219 61.894531 63.300781 64.179688 66.390625 C 66.464844 69.476562 69.445312 71.03125 73.136719 71.03125 C 75.882812 71.03125 78.335938 70.066406 80.476562 68.15625 C 82.617188 66.242188 83.707031 64.035156 83.707031 61.558594 Z M 83.707031 61.535156 "></path><path style=" stroke:none;fill-rule:nonzero;fill:rgb(7.058824%,8.235294%,9.019608%);fill-opacity:1;" d="M 44.863281 62.648438 C 44.253906 68.488281 37.417969 77.878906 24.433594 77.878906 C 10.445312 77.878906 0.0820312 67.796875 0.0820312 52.273438 C 0.0820312 37.648438 11.261719 27.480469 24.433594 27.480469 C 37.605469 27.480469 43.457031 35.148438 43.457031 41.789062 C 43.457031 45.210938 41.738281 47.230469 39.03125 48.449219 L 16.695312 58.636719 C 19.316406 64.183594 23.929688 67.398438 29.96875 67.398438 C 35.296875 67.398438 39.535156 64.667969 41.441406 61.558594 C 42.660156 60.042969 44.964844 60.546875 44.863281 62.671875 Z M 14.070312 45.316406 C 14.070312 48.449219 14.367188 51.367188 15.078125 53.996094 L 28.0625 47.441406 C 29.867188 46.535156 30.683594 44.8125 30.683594 42.691406 C 30.683594 39.058594 28.0625 31.914062 22.628906 31.914062 C 17.195312 31.914062 14.070312 37.671875 14.070312 45.316406 Z M 14.070312 45.316406 "></path><path style=" stroke:none;fill-rule:nonzero;fill:rgb(7.058824%,8.235294%,9.019608%);fill-opacity:1;" d="M 144.988281 62.648438 C 144.382812 68.488281 137.542969 77.878906 124.5625 77.878906 C 110.570312 77.878906 100.210938 67.796875 100.210938 52.273438 C 100.210938 37.648438 111.390625 27.480469 124.5625 27.480469 C 137.734375 27.480469 143.585938 35.148438 143.585938 41.789062 C 143.585938 45.210938 141.867188 47.230469 139.160156 48.449219 L 116.824219 58.636719 C 119.445312 64.183594 124.058594 67.398438 130.097656 67.398438 C 135.425781 67.398438 139.664062 64.667969 141.570312 61.558594 C 142.789062 60.042969 145.09375 60.546875 144.988281 62.671875 Z M 114.199219 45.316406 C 114.199219 48.449219 114.496094 51.367188 115.207031 53.996094 L 128.191406 47.441406 C 129.992188 46.535156 130.8125 44.8125 130.8125 42.691406 C 130.8125 39.058594 128.191406 31.914062 122.757812 31.914062 C 117.324219 31.914062 114.199219 37.671875 114.199219 45.316406 Z M 114.199219 45.316406 "></path><path style=" stroke:none;fill-rule:nonzero;fill:rgb(7.058824%,8.235294%,9.019608%);fill-opacity:1;" d="M 200.152344 72.316406 C 199.648438 71.914062 199.101562 71.644531 198.535156 71.515625 C 197.972656 71.390625 197.425781 70.929688 196.921875 70.152344 C 196.417969 69.375 196.167969 68.261719 196.167969 66.769531 L 196.167969 47.421875 C 196.167969 40.632812 194.699219 35.632812 191.742188 32.441406 C 188.785156 29.246094 184.191406 27.652344 177.960938 27.652344 C 171.734375 27.652344 166.132812 30.066406 161.582031 35.089844 C 161.539062 35.128906 161.457031 35.109375 161.457031 35.046875 C 161.203125 33.324219 160.910156 31.621094 160.300781 29.984375 C 160.21875 29.792969 160.15625 29.585938 160.070312 29.394531 C 158.855469 26.664062 156.234375 24.855469 153.253906 24.835938 C 152.078125 24.835938 150.925781 24.984375 149.75 25.089844 C 149.1875 25.152344 148.640625 25.257812 148.074219 25.339844 C 146.394531 25.613281 144.738281 25.84375 142.789062 25.550781 C 143.1875 26.558594 143.460938 27.355469 143.816406 28.09375 C 144.96875 30.550781 146.5625 32.652344 148.808594 34.226562 C 150.738281 35.59375 152.855469 36.285156 155.121094 36.328125 C 155.203125 36.328125 155.226562 36.453125 155.121094 36.476562 L 153.171875 36.769531 C 151.324219 37.042969 149.984375 38.636719 149.984375 40.488281 L 149.984375 66.726562 C 149.984375 68.199219 149.730469 69.332031 149.226562 70.109375 C 148.722656 70.886719 148.179688 71.328125 147.613281 71.476562 C 147.046875 71.601562 146.5 71.875 145.996094 72.273438 C 145.496094 72.671875 145.242188 73.28125 145.242188 74.078125 C 145.242188 75.886719 146.480469 76.8125 148.976562 76.8125 L 164.078125 76.8125 C 166.550781 76.8125 167.808594 75.90625 167.808594 74.078125 C 167.808594 73.28125 167.558594 72.671875 167.054688 72.273438 C 166.550781 71.875 166.007812 71.601562 165.441406 71.476562 C 164.875 71.347656 164.328125 70.886719 163.824219 70.109375 C 163.320312 69.332031 163.070312 68.21875 163.070312 66.726562 L 163.070312 45.96875 C 163.070312 43.15625 164.035156 40.632812 165.945312 38.40625 C 167.851562 36.179688 170.390625 35.089844 173.535156 35.089844 C 175.675781 35.089844 177.4375 35.402344 178.78125 36.054688 C 180.121094 36.683594 181.085938 37.691406 181.695312 39.039062 C 182.304688 40.382812 182.679688 41.707031 182.847656 43.03125 C 183.015625 44.332031 183.101562 46.074219 183.101562 48.21875 L 183.101562 66.769531 C 183.101562 68.238281 182.847656 69.375 182.34375 70.152344 C 181.839844 70.929688 181.296875 71.371094 180.730469 71.515625 C 180.164062 71.644531 179.617188 71.914062 179.117188 72.316406 C 178.613281 72.714844 178.359375 73.324219 178.359375 74.121094 C 178.359375 75.929688 179.597656 76.851562 182.09375 76.851562 L 197.195312 76.851562 C 199.671875 76.851562 200.929688 75.949219 200.929688 74.121094 C 200.929688 73.324219 200.675781 72.714844 200.171875 72.316406 Z M 200.152344 72.316406 "></path></g></svg> 