<?xml version="1.0" encoding="UTF-8"?> <svg xmlns="http://www.w3.org/2000/svg" version="1.1" width="646" height="201"><path d="M0 0 C1.69262995 1.69262995 1.1355967 3.82788937 1.14476013 6.14685059 C1.15165863 7.26271545 1.15855713 8.37858032 1.16566467 9.52825928 C1.16827805 10.76352356 1.17089142 11.99878784 1.17358398 13.27148438 C1.18384939 15.2558929 1.1941169 17.24030141 1.20446312 19.22470951 C1.21471401 21.3654352 1.2225557 23.50615848 1.22979546 25.64689636 C1.24522954 30.11054382 1.26918232 34.57411996 1.29469299 39.03771973 C1.36593226 51.73343389 1.42552641 64.42919014 1.47680664 77.125 C1.50518146 84.13120031 1.54060823 91.13733086 1.58346039 98.14345789 C1.61013593 102.57412827 1.62810139 107.00471968 1.63949764 111.43545437 C1.65083135 114.85481017 1.67493766 118.27405657 1.69702148 121.69335938 C1.69761063 122.91242981 1.69819977 124.13150024 1.69880676 125.38751221 C1.77012427 133.74178592 2.53099996 141.31864278 6 149 C0.67979978 149.07429915 -4.64009669 149.12867247 -9.96069336 149.16479492 C-11.76966617 149.17985755 -13.5786026 149.20031177 -15.38745117 149.22631836 C-17.99146515 149.2628132 -20.5949952 149.27975157 -23.19921875 149.29296875 C-24.00461594 149.30845261 -24.81001312 149.32393646 -25.63981628 149.33988953 C-30.23220745 149.341258 -33.30164007 149.0399943 -37 146 C-37.92578125 143.30078125 -37.92578125 143.30078125 -38.3125 140.3125 C-38.45300781 139.31863281 -38.59351563 138.32476562 -38.73828125 137.30078125 C-38.86783203 136.16189453 -38.86783203 136.16189453 -39 135 C-39.36351562 135.51949219 -39.72703125 136.03898438 -40.1015625 136.57421875 C-45.15197822 143.58005184 -50.25845859 149.10795496 -59 151 C-69.74228092 152.08313053 -79.02899419 150.10641053 -87.8359375 143.7890625 C-98.94587629 134.60431166 -104.54783819 122.65718751 -106.47265625 108.53125 C-108.18909736 89.74904378 -104.90408933 70.14364711 -93 55 C-86.60983719 47.91492587 -77.69524523 43.57766614 -68.23828125 42.76171875 C-59.13868922 42.53088798 -52.03884971 44.13062735 -45.0625 50.1875 C-44.53785156 50.69667969 -44.01320313 51.20585938 -43.47265625 51.73046875 C-41.90823575 53.24165411 -41.90823575 53.24165411 -39 54 C-38.91234931 49.97930575 -38.85938982 45.9588599 -38.8125 41.9375 C-38.78736328 40.80376953 -38.76222656 39.67003906 -38.73632812 38.50195312 C-38.68149889 32.23314418 -38.78284179 27.46309884 -42 22 C-44.52980707 20.04499143 -44.52980707 20.04499143 -47 19 C-45.96974254 16.13719129 -45.176255 15.10826642 -42.54492188 13.49194336 C-41.52978516 13.02925049 -40.51464844 12.56655762 -39.46875 12.08984375 C-38.34726562 11.57486328 -37.22578125 11.05988281 -36.0703125 10.52929688 C-34.89210938 10.00400391 -33.71390625 9.47871094 -32.5 8.9375 C-30.77910156 8.14375977 -30.77910156 8.14375977 -29.0234375 7.33398438 C-19.35308297 2.944877 -10.73035794 -0.68129257 0 0 Z M-59.6875 64 C-69.74094223 77.04230344 -68.45972771 98.00478275 -66.5390625 113.5078125 C-65.22966622 120.64017107 -63.37809238 125.07961761 -58 130 C-54.26814247 131.86592877 -50.06432999 131.54490229 -46 131 C-40.85263959 127.6049325 -39.41787021 122.75433255 -38 117 C-37.60842822 113.60761246 -37.57813758 110.26002174 -37.6015625 106.84765625 C-37.59869232 105.90748154 -37.59582214 104.96730682 -37.59286499 103.99864197 C-37.59083607 102.02293287 -37.59628328 100.04720314 -37.60888672 98.0715332 C-37.62493886 95.07391704 -37.609007 92.07765266 -37.58984375 89.08007812 C-37.59182674 87.14843457 -37.59567157 85.21679184 -37.6015625 83.28515625 C-37.59548981 82.4025563 -37.58941711 81.51995636 -37.5831604 80.61061096 C-37.66311373 73.41459819 -38.38503666 65.81611437 -43.4375 60.375 C-49.36334535 57.19527811 -54.73875258 60.31721122 -59.6875 64 Z " fill="#4C5647" transform="translate(326,7)"></path><path d="M0 0 C5.38863151 -0.3439552 9.70657339 1.01348389 13.95703125 4.24609375 C18.67359987 10.10442537 19.28813168 15.98086647 18.95703125 23.24609375 C18.59274626 26.16541597 18.02732539 29.01980004 17.40625 31.89453125 C17.23123459 32.71134369 17.05621918 33.52815613 16.87590027 34.36972046 C14.6027441 44.45006182 11.1926801 54.13518802 7.76953125 63.87109375 C7.09219713 65.82135806 6.41560915 67.77188166 5.73974609 69.72265625 C4.11112109 74.41362541 2.4683672 79.09949054 0.82073975 83.78381348 C0.05036144 85.98002587 -0.71411323 88.17811135 -1.47412109 90.37792969 C-19.25362096 141.8282787 -19.25362096 141.8282787 -35.28125 149.87109375 C-44.75829401 153.76707274 -55.71978092 151.68618364 -64.8828125 148.0234375 C-67.04296875 146.24609375 -67.04296875 146.24609375 -68.0625 143.23046875 C-68.0363137 137.88846453 -66.56952928 133.55734741 -64.79296875 128.55859375 C-64.32310547 127.15383789 -64.32310547 127.15383789 -63.84375 125.72070312 C-62.34296176 121.35845348 -60.97639232 117.85801385 -58.04296875 114.24609375 C-54.03862801 114.66321258 -51.2115155 115.17216974 -47.48046875 116.80859375 C-41.02487575 119.33797814 -32.92164581 119.76156488 -26.43359375 117.2265625 C-23.06782898 115.19359144 -21.24829364 113.55408109 -19.04296875 110.24609375 C-19.04296875 109.25609375 -19.04296875 108.26609375 -19.04296875 107.24609375 C-19.9151001 107.23151123 -20.78723145 107.21692871 -21.68579102 107.2019043 C-24.94956871 107.14052003 -28.21254832 107.06630987 -31.47583008 106.98364258 C-32.88294655 106.95057381 -34.29018991 106.92248671 -35.69750977 106.8996582 C-37.73117699 106.86577576 -39.7637001 106.81345157 -41.796875 106.7578125 C-43.01705322 106.73162842 -44.23723145 106.70544434 -45.49438477 106.6784668 C-50.36509622 106.08500068 -54.43691839 104.94142846 -57.87866211 101.30834961 C-61.78764199 94.52471477 -64.03131851 87.5163762 -66.02676392 79.98748779 C-67.04552658 76.15172254 -68.11987297 72.33130271 -69.18359375 68.5078125 C-69.40831863 67.69463562 -69.63304352 66.88145874 -69.86457825 66.04364014 C-72.46529435 56.65504762 -75.20981367 47.31010524 -78.00338745 37.9772644 C-78.56695053 36.08820485 -79.1262077 34.19785483 -79.68093872 32.30618286 C-80.46459475 29.63456227 -81.26189303 26.96736395 -82.0625 24.30078125 C-82.28931458 23.51770096 -82.51612915 22.73462067 -82.74981689 21.92781067 C-84.83332309 15.08748073 -88.08629373 9.18110628 -92.04296875 3.24609375 C-74.88296875 3.24609375 -57.72296875 3.24609375 -40.04296875 3.24609375 C-40.04296875 8.85609375 -40.04296875 14.46609375 -40.04296875 20.24609375 C-39.44301952 24.86727868 -39.44301952 24.86727868 -38.3203125 28.71875 C-38.13950638 29.40697845 -37.95870026 30.09520691 -37.77241516 30.80429077 C-37.19557757 32.97854953 -36.58932928 35.14310954 -35.98046875 37.30859375 C-35.5665154 38.83756171 -35.15410125 40.36694715 -34.74316406 41.89672852 C-33.72555028 45.66088474 -32.68149664 49.41700331 -31.62542725 53.17053223 C-31.08138966 55.10918277 -30.54550981 57.05011744 -30.01025391 58.99121094 C-25.34685731 77.36739456 -25.34685731 77.36739456 -17.04296875 94.24609375 C-15.10380818 93.9795084 -15.10380818 93.9795084 -13.04296875 93.24609375 C-5.4183256 81.69360413 -4.52674259 65.26023862 -6.546875 51.91796875 C-8.69285619 42.15682003 -12.80186376 35.00670774 -21.04296875 29.24609375 C-23.37209953 27.86544316 -25.71932821 26.56639007 -28.125 25.32421875 C-30.04296875 24.24609375 -30.04296875 24.24609375 -32.04296875 22.24609375 C-32.04296875 17.47268263 -30.37474365 14.45997952 -27.23828125 11.05078125 C-19.51814591 4.70433547 -9.80935835 1.18162443 0 0 Z " fill="#4C5647" transform="translate(524.04296875,49.75390625)"></path><path d="M0 0 C0.84046875 0.61746094 1.6809375 1.23492187 2.546875 1.87109375 C5.11366826 4.09864522 6.7451037 6.1993629 8.5625 9.0625 C9.39974609 10.34833984 9.39974609 10.34833984 10.25390625 11.66015625 C14.98200872 20.70384218 16.58493308 28.62437922 16.5390625 38.7890625 C16.55085541 39.97293549 16.56264832 41.15680847 16.57479858 42.3765564 C16.60982383 46.12617384 16.61920438 49.87523289 16.625 53.625 C16.64140498 57.38174007 16.66356013 61.13823557 16.69662476 64.89486694 C16.71607731 67.22213448 16.72560916 69.54951365 16.72354126 71.87686157 C16.77710403 80.07382581 17.59695056 87.46467624 21 95 C15.53743725 95.12381149 10.07569512 95.21443826 4.61206055 95.2746582 C2.75449391 95.29976702 0.89702573 95.33386134 -0.96020508 95.37719727 C-3.63387358 95.43801124 -6.30623365 95.4662452 -8.98046875 95.48828125 C-10.2213752 95.52699089 -10.2213752 95.52699089 -11.48735046 95.56648254 C-15.7993152 95.56856913 -17.48526855 95.39694508 -21.01293945 92.67651367 C-23.23085771 89.68904128 -23.74343594 87.67741816 -24 84 C-28.47165923 85.61740866 -31.75301402 87.47437175 -35.4375 90.5 C-44.44382307 97.61183775 -53.76149092 98.30498651 -65 97 C-68.33463744 96.06032615 -70.09198635 95.01324022 -73 93 C-73.886875 92.443125 -74.77375 91.88625 -75.6875 91.3125 C-81.30820978 85.69179022 -84.06728781 78.83980209 -84.25 70.9375 C-84.03753036 58.14682778 -78.72347517 47.20075673 -70 38 C-58.95466592 29.07876863 -47.06385555 24.11572003 -33.6015625 20.11328125 C-30.6543549 19.20226806 -27.83837564 18.20000824 -25 17 C-24.65577311 11.26288519 -24.63305511 6.93016931 -28 2 C-30.9070612 -0.36871654 -34.17985842 -0.43583574 -37.8671875 -0.29296875 C-48.8526164 1.21601874 -55.51123502 11.65305146 -61.75 19.875 C-64.55838747 23.54040712 -67.11336308 26.46523679 -71 29 C-74.48143326 28.92087652 -75.53354744 28.46645256 -78 26 C-78.44761388 22.91683562 -78.32406858 19.79944717 -78.3125 16.6875 C-78.32861328 15.83220703 -78.34472656 14.97691406 -78.36132812 14.09570312 C-78.3663667 7.59090685 -77.18089056 4.23681083 -72.5625 -0.5 C-53.65596345 -15.2984496 -18.89673154 -13.97170539 0 0 Z M-41.625 36.625 C-48.64462577 45.82548037 -49.08821991 55.87597426 -48 67 C-46.86098725 71.31241193 -45.10372144 74.04543011 -41.6875 77 C-37.23579474 78.65644847 -33.65294201 78.67620355 -29.25 76.875 C-26.05803248 74.21502707 -24.3044451 71.23162028 -23.73376465 67.04846191 C-23.63791526 64.82317376 -23.63626119 62.61767943 -23.671875 60.390625 C-23.67374817 59.58260437 -23.67562134 58.77458374 -23.67755127 57.94207764 C-23.6842427 56.2443831 -23.69809893 54.54670321 -23.71875 52.84912109 C-23.75006828 50.2443212 -23.75974139 47.6401263 -23.765625 45.03515625 C-23.77478939 43.38280508 -23.78516336 41.73046008 -23.796875 40.078125 C-23.80112488 39.29794006 -23.80537476 38.51775513 -23.80975342 37.71392822 C-23.77990698 33.72683919 -23.77990698 33.72683919 -25 30 C-32.67938486 29.47038725 -36.07662447 31.07662447 -41.625 36.625 Z " fill="#4C5647" transform="translate(420,60)"></path><path d="M0 0 C2.49819284 2.51883906 3.3897984 4.13671582 3.73046875 7.6796875 C3.26525805 13.26221586 1.556939 16.98288745 -1.89453125 21.3671875 C-4.58203125 23.4296875 -4.58203125 23.4296875 -7.51953125 23.9921875 C-14.20472348 22.76429505 -17.8955312 18.13994044 -21.83203125 13.0546875 C-27.88817104 5.58232671 -34.83333028 0.05447099 -44.58203125 -1.5703125 C-52.47059212 -2.17494471 -60.11384561 -2.75163398 -66.58203125 2.4296875 C-69.28333269 5.45841942 -69.56430868 6.9245943 -69.70703125 10.9921875 C-68.45051478 14.83154339 -67.38793452 15.62771553 -63.90966797 17.47241211 C-58.99849189 19.49220668 -53.76839545 20.37819957 -48.58203125 21.4296875 C-46.15324006 21.94862532 -43.72485018 22.46944508 -41.296875 22.9921875 C-40.13526855 23.2396875 -38.97366211 23.4871875 -37.77685547 23.7421875 C-23.88756747 26.7310485 -9.3030575 30.25636335 0.41796875 41.4296875 C6.56955177 50.98885295 6.602288 62.07570513 4.83984375 73.01953125 C2.39302025 82.37307017 -2.34187192 89.03733671 -10.484375 94.30859375 C-20.19371252 99.49440465 -29.68878086 100.8064023 -40.58203125 100.7421875 C-41.58242432 100.73727295 -42.58281738 100.7323584 -43.61352539 100.72729492 C-55.97805833 100.53531436 -67.62052945 98.50858386 -79.45703125 94.9921875 C-80.11759521 94.79923096 -80.77815918 94.60627441 -81.45874023 94.4074707 C-85.41945179 93.13595841 -87.99997358 91.71594271 -90.58203125 88.4296875 C-92.39189901 78.97815585 -86.14764207 68.73069526 -81.20703125 61.0390625 C-79.11884192 58.97095192 -77.45313781 58.75947677 -74.58203125 58.4296875 C-71.90120333 61.52295048 -69.86596709 64.67822688 -67.89453125 68.2421875 C-63.52186828 75.61418964 -57.23118903 81.64000038 -49.1640625 84.8046875 C-41.23577898 86.7237879 -32.7132553 86.55658607 -25.42578125 82.6953125 C-22.31099797 80.55719855 -20.59337589 78.67379176 -18.58203125 75.4296875 C-17.90416199 71.73906597 -18.25424715 70.07035643 -19.95703125 66.7421875 C-26.56633348 60.91970696 -37.04595227 60.59051477 -45.45703125 59.4296875 C-76.39434603 55.12980158 -76.39434603 55.12980158 -86.109375 44.49609375 C-92.12537452 36.05454535 -92.44320498 26.68665151 -91.26171875 16.73046875 C-90.03379485 9.44106595 -87.97826214 3.06883221 -82.14453125 -1.7578125 C-60.83179802 -16.24257749 -20.47403685 -16.72272326 0 0 Z " fill="#4C5647" transform="translate(640.58203125,61.5703125)"></path><path d="M0 0 C1.90486166 3.80972331 1.50576692 8.1831948 0.38818359 12.19775391 C-0.44231004 14.43914014 -1.35234652 16.62365918 -2.3125 18.8125 C-2.62123047 19.56208984 -2.92996094 20.31167969 -3.24804688 21.08398438 C-6.00177098 27.57117863 -6.00177098 27.57117863 -9 30 C-17.6479684 30.36033202 -24.77252357 23.7489475 -31.3125 18.75 C-36.99581581 14.42699102 -41.84341655 12.23085753 -49 12 C-51.61760705 12.79573513 -51.61760705 12.79573513 -53 15 C-53.91954226 20.8620819 -52.28349788 25.23892807 -49 30 C-43.53029886 36.13310549 -37.76205953 37.92933903 -29.72265625 38.4140625 C-27.83627598 38.49293554 -25.9495131 38.56308843 -24.0625 38.625 C-22.6074707 38.68300781 -22.6074707 38.68300781 -21.12304688 38.7421875 C-18.74887924 38.83575076 -16.37470508 38.92149208 -14 39 C-14 41.64 -14 44.28 -14 47 C-18.62 47 -23.24 47 -28 47 C-27.9386448 57.66658775 -27.86143516 68.33293372 -27.76428509 78.999259 C-27.71966039 83.95269565 -27.68038698 88.90605156 -27.65356445 93.85961914 C-27.62745251 98.6449142 -27.58699467 103.4298972 -27.53681374 108.21499825 C-27.52019825 110.03568181 -27.50865099 111.85641929 -27.50238609 113.67716789 C-27.4926868 116.23815079 -27.46455939 118.79834482 -27.43237305 121.35913086 C-27.43380814 122.10288467 -27.43524323 122.84663849 -27.4367218 123.6129303 C-27.33855998 129.17740477 -25.95581617 133.81611214 -24 139 C-23.67 139.99 -23.34 140.98 -23 142 C-39.5 142 -56 142 -73 142 C-72.01 140.35 -71.02 138.7 -70 137 C-69.0864861 134.23626633 -68.87097354 131.74235713 -68.85523987 128.84130859 C-68.84834137 128.0201506 -68.84144287 127.19899261 -68.83433533 126.35295105 C-68.83041527 125.01421684 -68.83041527 125.01421684 -68.82641602 123.6484375 C-68.819729 122.70152542 -68.81304199 121.75461334 -68.80615234 120.77900696 C-68.79210767 118.72250654 -68.78021176 116.66599058 -68.77020454 114.60946655 C-68.7537607 111.34611431 -68.73051759 108.08287567 -68.70530701 104.81958008 C-68.63465123 95.54074809 -68.57464156 86.26186808 -68.52319336 76.98291016 C-68.49123273 71.30479287 -68.44990796 65.62680399 -68.40299797 59.9487915 C-68.38707166 57.79285006 -68.37470735 55.63687905 -68.36609077 53.480896 C-68.21561227 16.34382495 -68.21561227 16.34382495 -54.45703125 2.12890625 C-39.43891851 -10.88360797 -16.42015608 -9.60424224 0 0 Z " fill="#4C5647" transform="translate(73,13)"></path><path d="M0 0 C1.89193128 3.1532188 1.18699902 4.62067759 0.3125 8.1875 C-0.9378723 11.34323634 -2.38895619 14.38677137 -3.875 17.4375 C-4.28137695 18.27708252 -4.68775391 19.11666504 -5.10644531 19.98168945 C-12.35035923 34.79500589 -12.35035923 34.79500589 -14.6875 37.1875 C-17.23046875 37.5625 -17.23046875 37.5625 -19.6875 37.1875 C-21.75 35 -21.75 35 -23.6875 32.1875 C-26.62790267 27.97292284 -28.56805563 26.17200853 -33.6875 25.1875 C-38.13999443 25.03879193 -40.90568827 25.62663506 -44.5625 28.25 C-49.26849385 34.75534443 -48.99548868 42.38883091 -48.98828125 50.1171875 C-48.99470894 51.66274826 -48.99470894 51.66274826 -49.00126648 53.23953247 C-49.00698469 55.40951811 -49.00752864 57.57952291 -49.00317383 59.74951172 C-49.0000162 63.04558456 -49.02349727 66.34075674 -49.04882812 69.63671875 C-49.0511018 71.75520721 -49.0518043 73.87369806 -49.05078125 75.9921875 C-49.059991 76.96541962 -49.06920074 77.93865173 -49.07868958 78.94137573 C-49.03502345 85.49200122 -47.87608051 91.024905 -45.6875 97.1875 C-45.3575 98.1775 -45.0275 99.1675 -44.6875 100.1875 C-60.8575 100.1875 -77.0275 100.1875 -93.6875 100.1875 C-92.6975 97.8775 -91.7075 95.5675 -90.6875 93.1875 C-89.54378151 89.0267461 -89.53325763 84.90649626 -89.52636719 80.6184082 C-89.52140228 79.87296249 -89.51643738 79.12751678 -89.51132202 78.35948181 C-89.49676293 75.90240541 -89.48990792 73.44539363 -89.484375 70.98828125 C-89.48154762 70.14480825 -89.47872025 69.30133526 -89.47580719 68.43230247 C-89.46083759 63.96633976 -89.45159482 59.50040914 -89.44726562 55.03442383 C-89.44179262 50.44267351 -89.41778303 45.85122146 -89.38929367 41.2595644 C-89.37057842 37.71029328 -89.36545692 34.16109263 -89.36392975 30.61177635 C-89.36092136 28.92025311 -89.35295485 27.22873057 -89.33974457 25.53725624 C-89.27555031 16.68386707 -89.34075209 8.53875456 -92.6875 0.1875 C-93.0175 -0.8025 -93.3475 -1.7925 -93.6875 -2.8125 C-88.34897206 -2.8619731 -83.01057786 -2.89825425 -77.671875 -2.92236328 C-75.85609614 -2.93241491 -74.04033344 -2.94605828 -72.22460938 -2.96337891 C-69.61324065 -2.98766406 -67.00208613 -2.99899148 -64.390625 -3.0078125 C-63.58006653 -3.01813507 -62.76950806 -3.02845764 -61.93438721 -3.03909302 C-54.80472808 -3.04050924 -54.80472808 -3.04050924 -51.6875 -0.8125 C-49.3333729 2.47439445 -49.47660527 5.48634224 -49.5625 9.4375 C-49.58054688 10.51515625 -49.59859375 11.5928125 -49.6171875 12.703125 C-49.64039063 13.52296875 -49.66359375 14.3428125 -49.6875 15.1875 C-46.20578469 12.76084994 -43.84362715 10.14719333 -41.375 6.75 C-31.7455755 -5.92248939 -13.39663312 -9.03493862 0 0 Z " fill="#4C5647" transform="translate(159.6875,54.8125)"></path><path d="M0 0 C2.79602685 2.54094508 3.01158116 4.12013116 3.37854004 7.92658997 C3.39581437 9.54707926 3.39669945 11.16779265 3.38476562 12.78833008 C3.3901384 13.67499863 3.39551117 14.56166718 3.40104675 15.47520447 C3.41082432 17.39911025 3.41376897 19.32306013 3.41069031 21.2469883 C3.40621274 24.29489289 3.42021203 27.3422167 3.43908691 30.39006042 C3.4758841 36.86419743 3.48957644 43.33827383 3.5 49.8125 C3.51208514 57.30542591 3.53368539 64.7980695 3.58000183 72.29086876 C3.59355207 75.28824889 3.58940413 78.28527042 3.58459473 81.28266907 C3.59393907 83.12961275 3.60410883 84.97655251 3.61523438 86.82348633 C3.60908615 87.65230316 3.60293793 88.48112 3.59660339 89.33505249 C3.65263887 94.64947907 4.64471036 98.23267829 7 103 C7.33 103.99 7.66 104.98 8 106 C-8.5 106 -25 106 -42 106 C-41.34 104.35 -40.68 102.7 -40 101 C-38.42341713 96.19889424 -37.74801513 92.07422735 -37.74121094 87.02661133 C-37.7377063 86.36877151 -37.73420166 85.7109317 -37.73059082 85.03315735 C-37.72186687 82.88267115 -37.7275871 80.73252013 -37.734375 78.58203125 C-37.73302614 77.07704099 -37.73108377 75.57205115 -37.72857666 74.06706238 C-37.72563848 70.92430441 -37.72988262 67.78166064 -37.73925781 64.63891602 C-37.75068122 60.61389798 -37.7440665 56.58914587 -37.73211288 52.56413746 C-37.72488407 49.46117652 -37.72718639 46.35827862 -37.73236847 43.25531578 C-37.73370061 41.77097225 -37.73207252 40.28662295 -37.72740936 38.80228615 C-37.72232399 36.72977144 -37.73008085 34.65768772 -37.74121094 32.58520508 C-37.74280212 31.40718826 -37.74439331 30.22917145 -37.74603271 29.01545715 C-37.99308272 26.08213165 -38.37500262 24.42526084 -40 22 C-42.0335948 20.73195434 -42.0335948 20.73195434 -44 20 C-43.81933594 18.1796875 -43.81933594 18.1796875 -43 16 C-40.79785156 14.5078125 -40.79785156 14.5078125 -37.890625 13.125 C-36.82457031 12.61453125 -35.75851563 12.1040625 -34.66015625 11.578125 C-33.53480469 11.05734375 -32.40945312 10.5365625 -31.25 10 C-30.17105469 9.47921875 -29.09210938 8.9584375 -27.98046875 8.421875 C-7.66826509 -1.16529145 -7.66826509 -1.16529145 0 0 Z " fill="#4C5647" transform="translate(207,50)"></path><path d="M0 0 C5.28826151 3.15733757 8.57087953 7.51995015 10.5 13.375 C11.33850616 20.98980595 11.3145219 28.12352849 6.5 34.375 C2.52903492 38.61794899 -1.7547564 41.07270685 -7.55078125 41.7109375 C-15.30233791 41.80377051 -21.20415358 41.39547165 -27.0234375 35.94921875 C-32.3763094 29.962047 -32.95271997 24.36138558 -32.8125 16.60546875 C-32.23288488 10.61369746 -30.02776228 6.49219832 -25.5625 2.5 C-18.16404108 -2.63362456 -8.36103882 -3.82218918 0 0 Z " fill="#4C5647" transform="translate(200.5,1.625)"></path></svg> 