<?xml version="1.0" encoding="UTF-8"?> <svg xmlns="http://www.w3.org/2000/svg" width="154" height="19" viewBox="0 0 154 19" fill="none"><path d="M152.825 15.8811V9.54701C152.825 7.29864 151.67 6.16237 149.66 6.16237C147.65 6.16237 146.557 7.23417 145.759 8.22539V1.33523H145.108L140.727 2.28615V2.90667L141.881 3.48286V15.8852C141.881 16.546 141.546 16.6266 140.706 16.691V17.4969H146.868V16.691C146.029 16.6306 145.759 16.546 145.759 15.8852V8.87008C146.283 8.60012 146.872 8.41477 147.54 8.41477C148.629 8.41477 148.944 8.95067 148.944 9.85727V15.8811C148.944 16.5419 148.669 16.6225 147.834 16.687V17.4929H154V16.687C153.161 16.6266 152.825 16.5419 152.825 15.8811Z" fill="#024750"></path><path d="M140.649 15.2203C140.146 15.5507 139.683 15.7361 139.138 15.7361C138.34 15.7361 137.943 15.3009 137.943 14.3137V7.48399H140.395V6.36787H137.943V3.56345H137.124C136.035 4.98581 134.524 6.18252 132.846 6.80303V7.48399H134.041V14.3137C134.041 16.7474 135.384 17.6984 137.312 17.6984C138.991 17.6984 140.162 16.957 140.96 15.6756L140.645 15.2203H140.649Z" fill="#024750"></path><path d="M131.908 15.8811V1.33523H131.257L126.877 2.28615V2.90667L128.031 3.48286V15.8852C128.031 16.4855 127.749 16.6064 127.065 16.6709C127.098 16.6386 127.135 16.6104 127.167 16.5782L127.02 16.0222C126.873 16.0826 126.602 16.1471 126.308 16.1471C125.804 16.1471 125.743 15.7119 125.743 15.2203V9.75251C125.743 7.06897 123.982 6.16237 121.047 6.16237C118.508 6.16237 116.539 7.02868 116.539 8.90635C116.539 9.64775 116.957 10.1434 117.567 10.3488L119.892 10.0386C119.79 9.54298 119.704 9.06752 119.704 8.59609C119.704 7.62502 120.019 6.96421 120.838 6.96421C121.657 6.96421 121.927 7.60487 121.927 8.55177V10.6551L118.594 11.8115C117.104 12.3273 115.827 13.0686 115.827 14.8657C115.827 16.6628 117.063 17.6299 118.824 17.6299C120.375 17.6299 121.382 16.824 121.988 15.9577C122.304 17.0496 123.184 17.6903 124.4 17.6903C125.407 17.6903 126.213 17.372 126.856 16.8482V17.4888H133.083V16.683C132.244 16.6225 131.908 16.5379 131.908 15.8771V15.8811ZM121.923 15.3573C121.587 15.5427 121.337 15.6474 121.002 15.6474C119.954 15.6474 119.556 14.8617 119.556 13.81C119.556 12.6335 120.04 12.2426 120.772 11.9727L121.927 11.5375V15.3533H121.923V15.3573Z" fill="#024750"></path><path d="M112.175 15.172C110.267 15.172 108.883 13.6448 108.924 11.191H115.614V10.6752C115.614 8.05616 114.062 6.15431 111.024 6.15431C107.987 6.15431 105.428 8.50744 105.428 12.1782C105.428 15.6434 107.778 17.6863 110.877 17.6863C113.518 17.6863 115.135 16.1793 115.7 13.9108L115.303 13.665C114.504 14.6965 113.522 15.172 112.179 15.172H112.175ZM110.77 7.02062C111.905 7.02062 112.302 8.23748 112.302 10.2401H108.949C109.051 8.32209 109.62 7.02062 110.775 7.02062H110.77Z" fill="#024750"></path><path d="M98.0829 3.86565C99.4872 4.01071 99.6141 4.17591 99.6141 5.24771V9.49866H94.2877V5.24771C94.2877 4.17591 94.4146 4.01071 95.7984 3.86565V2.99934H88.6501V3.86565C90.0544 4.01071 90.1813 4.17591 90.1813 5.24771V15.2364C90.1813 16.3082 90.0544 16.4734 88.6501 16.6185V17.4848H95.7984V16.6185C94.4146 16.4734 94.2877 16.3082 94.2877 15.2364V10.78H99.6141V15.2364C99.6141 16.3082 99.4872 16.4734 98.0829 16.6185V17.4848H105.231V16.6185C103.847 16.4734 103.72 16.3082 103.72 15.2364V5.24771C103.72 4.17591 103.847 4.01071 105.231 3.86565V2.99934H98.0829V3.86565Z" fill="#024750"></path><path d="M81.8949 15.172C79.987 15.172 78.6032 13.6448 78.6442 11.191H85.3339V10.6752C85.3339 8.05616 83.7822 6.15431 80.7444 6.15431C77.7066 6.15431 75.1478 8.50744 75.1478 12.1782C75.1478 15.6434 77.4978 17.6863 80.597 17.6863C83.2377 17.6863 84.8549 16.1793 85.4199 13.9108L85.0228 13.665C84.2244 14.6965 83.2418 15.172 81.899 15.172H81.8949ZM80.4906 7.02062C81.6247 7.02062 82.0218 8.23748 82.0218 10.2401H78.6687C78.7752 8.32209 79.3402 7.02062 80.4906 7.02062Z" fill="#024750"></path><path d="M74.0056 15.8731V9.43419C74.0056 7.26641 72.9165 6.15431 70.9636 6.15431C69.1622 6.15431 67.8808 7.18582 67.1275 8.30195C66.8327 6.79498 65.8256 6.15431 64.2125 6.15431C62.3456 6.15431 61.2156 7.12538 60.4173 8.25762L60.4991 6.15431H59.7868L55.4061 7.35102V7.92722L56.5606 8.62832V15.869C56.5606 16.5299 56.2249 16.6104 55.3856 16.6749V17.4808H61.4858V16.6749C60.6465 16.6145 60.4173 16.5299 60.4173 15.869V8.85397C60.9413 8.584 61.4449 8.37851 62.0958 8.37851C63.0375 8.37851 63.3323 8.89426 63.3323 9.78071V15.869C63.3323 16.5299 63.1235 16.6104 62.2842 16.6749V17.4808H68.2574V16.6749C67.4182 16.6145 67.2094 16.5299 67.2094 15.869V8.85397C67.7334 8.60818 68.237 8.37851 68.8675 8.37851C69.8337 8.37851 70.1244 8.89426 70.1244 9.78071V15.869C70.1244 16.5299 69.9156 16.6104 69.0763 16.6749V17.4808H75.156V16.6749C74.3372 16.6145 74.0015 16.5299 74.0015 15.869L74.0056 15.8731Z" fill="#024750"></path><path d="M52.1513 5.25174C53.4082 5.25174 54.2065 4.36529 54.2065 3.33378C54.2065 2.30227 53.4082 1.43596 52.1513 1.43596C50.8944 1.43596 50.0961 2.30227 50.0961 3.33378C50.0961 4.36529 50.8494 5.25174 52.1513 5.25174Z" fill="#024750"></path><path d="M54.0387 15.8811V6.16237H53.3877L49.0521 7.35102V6.50486C48.8433 6.29937 48.4871 6.15431 48.004 6.15431C46.6816 6.15431 45.9487 6.91586 45.089 9.33346L45.1709 6.15431H44.4585L40.0778 7.35102V7.92722L41.2324 8.62832V15.869C41.2324 16.5299 40.8966 16.6104 40.0574 16.6749V17.4808H46.7676V16.6749C45.5721 16.5299 45.089 16.4493 45.089 15.5588V10.1111C46.0552 9.41002 47.2261 9.36972 48.5485 9.36972H49.0521V7.94737L50.1779 8.63235V15.8731C50.1779 16.5339 49.8422 16.6145 49.0029 16.6789V17.4848H55.2096V16.6789C54.3703 16.6185 54.0346 16.5339 54.0346 15.8731V15.8811H54.0387Z" fill="#024750"></path><path d="M34.039 2.99934H26.7843V3.86565C28.1886 4.01071 28.3155 4.17591 28.3155 5.24771V15.2364C28.3155 16.3082 28.1886 16.4734 26.7843 16.6185V17.4848H34.8579V16.6185C32.991 16.5137 32.426 16.2679 32.426 15.176V11.8961H33.8712C38.0226 11.8961 40.0123 10.2239 40.0123 7.3752C40.0123 4.87701 38.1249 2.99934 34.039 2.99934ZM32.905 10.8203H32.4219V3.97041H32.905C34.7924 3.97041 35.9878 5.25174 35.9878 7.3752C35.9878 9.49866 34.9193 10.8203 32.905 10.8203Z" fill="#024750"></path><path d="M19.1079 6.08178V6.09387C18.9933 5.98105 18.8336 5.92464 18.6657 5.9327L7.3947 12.6375C7.30463 12.6375 7.22275 12.5892 7.18181 12.5126C7.14086 12.436 7.14086 12.3434 7.18181 12.2668L13.1019 4.78837C13.1919 4.64331 13.237 4.47811 13.237 4.30485V0.618006C13.2492 0.456833 13.1878 0.295659 13.0732 0.182838C12.9586 0.0619581 12.7948 -0.00251126 12.6351 0.00151807H6.61273C6.44077 -0.0105699 6.27292 0.0498701 6.15009 0.17075C6.02727 0.29163 5.96586 0.456833 5.97814 0.613977V5.69497C5.97814 5.82794 5.8676 5.9327 5.73659 5.9327H0.594413C0.430649 5.9327 0.27098 5.99717 0.164533 6.11402C0.0498987 6.2349 -0.00741853 6.38801 0.000769653 6.54516V12.4481C0.000769653 12.6093 0.0662751 12.7664 0.185004 12.8793C0.307826 12.9921 0.463402 13.0485 0.623071 13.0404H5.98633L6.00271 15.3613V18.3793C5.99042 18.5485 6.05593 18.7137 6.17466 18.8266C6.2852 18.9354 6.43668 18.9998 6.59226 18.9998H12.6269C12.7907 19.0039 12.9504 18.9354 13.065 18.8185C13.1796 18.6976 13.237 18.5365 13.2288 18.3833V13.2782C13.2288 13.1452 13.3393 13.0404 13.4785 13.0404H18.6616C18.8254 13.0566 18.9892 12.9921 19.112 12.8793C19.2348 12.7664 19.3003 12.6093 19.2962 12.4481V6.51695C19.2962 6.35578 19.2307 6.19863 19.112 6.08581H19.1079V6.08178Z" fill="#AFF9C8"></path></svg> 