<?xml version="1.0" encoding="UTF-8"?> <svg xmlns="http://www.w3.org/2000/svg" class="w-[72px] h-[27px] lg:w-[82px] lg:h-[31px] text-white md:text-deep-blue" width="82" height="31" fill="none" viewBox="0 0 82 31"><path fill="currentColor" d="M8.803 2.72c0-1.6 1.128-2.72 2.833-2.72 1.706 0 2.834 1.119 2.834 2.72 0 1.6-1.128 2.72-2.834 2.72-1.705 0-2.833-1.121-2.833-2.72ZM28.316 7.742v4.319a11.061 11.061 0 0 0-1.995-.191c-2.736 0-4.055 1.28-4.055 4.384v7.903h-4.57V7.839h4.473v2.688c.804-1.889 2.575-3.007 4.762-3.007.516 0 .965.065 1.385.224v-.002ZM46.385 13.468v10.686h-4.57v-9.502c0-2.111-.836-3.135-2.8-3.135-2.123 0-3.411 1.215-3.411 3.422v9.215h-4.57V7.838h4.473v2.367c.901-1.727 2.799-2.816 5.246-2.816 3.475 0 5.632 2.176 5.632 6.08ZM64.868 7.838V22.49c0 5.471-3.122 8.51-8.755 8.51-2.833 0-5.406-.8-7.015-2.176l1.898-3.36C52.413 26.488 54.182 27 55.824 27c2.833 0 4.57-1.599 4.57-4.512v-1.311c-.9 1.695-2.767 2.75-5.148 2.75-3.38 0-5.567-2.175-5.567-6.079V7.834h4.57v8.83c0 2.143.87 3.136 2.736 3.136 2.06 0 3.346-1.249 3.346-3.423V7.834h4.54l-.003.004ZM67.324 21.69l2.22-2.975c1.32 1.28 3.38 2.11 5.407 2.11 1.609 0 2.479-.543 2.479-1.374 0-.736-.579-1.183-1.964-1.504l-2.736-.64c-3.443-.8-4.794-2.4-4.794-4.64 0-3.104 2.575-5.278 6.92-5.278 2.897 0 5.407.959 6.887 2.495l-2.221 3.007c-1.577-1.184-3.186-1.696-4.731-1.696-1.546 0-2.318.512-2.318 1.312 0 .609.483 1.024 1.931 1.343l2.834.672c3.508.8 4.762 2.398 4.762 4.671 0 3.295-2.607 5.406-7.08 5.406-3.22 0-5.988-1.087-7.596-2.91v.001ZM13.807 7.838v9.855c0 4.256-2.318 6.91-6.855 6.91-3.154 0-5.504-1.28-6.952-3.775l3.509-2.367c.836 1.28 1.866 1.824 3.154 1.824 1.674 0 2.51-.96 2.51-2.88V7.84h4.634v-.002Z"></path></svg> 