<?xml version="1.0" encoding="UTF-8"?> <svg xmlns="http://www.w3.org/2000/svg" id="Layer_1" version="1.1" viewBox="0 0 759.1 225.1"><defs><style> .st0 { fill: #2c7068; } </style></defs><path class="st0" d="M475.8,172.9c0-27.5,0-55,0-82.5v-5.5c-17.4,5.3-33.9,10.3-51.3,15.6,12.2,11.2,11.6,24.6,11.5,38-.1,18.1,0,36.2-.1,54.3,0,3.9-.5,7.9-1.6,11.6-1.6,5.6-3.9,11-6,16.6h54.4c-2.2-8.1-5.1-15.8-6.2-23.7-1.1-8-.6-16.2-.7-24.4Z"></path><path class="st0" d="M190.7,209.5c-10.3,4.2-16.2,2.6-21.5-7.4-4.1-7.7-7.2-15.9-10.7-23.8-4.4-9.9-8.2-20.2-13.3-29.7-6.8-12.5-16.9-21.5-31.3-24.7-2.7-.6-5.4-.9-8.2-1.4,13.2-2.4,25.6-5.8,36.9-13.1,30.2-19.5,28.5-68.9-6.2-84.1-15.7-6.9-32-10.2-49-10.3-27.6-.2-55.3,0-82.9,0-1.3,0-2.6.2-4.5.4,1.1,1.9,1.9,3.2,2.7,4.5,4.8,8,7.6,16.8,7.6,26.1.2,46.5.1,92.9.2,139.4,0,12.1-2.6,23.4-9.4,33.6-.3.4-.3,1.1-.4,1.7h63.7c-10.1-14-11.1-29.4-10.9-45.1.2-15.3,0-30.6,0-45.8,0-1.6,0-3.3,0-5.1,7.1,0,13.5-.3,19.9,0,6.2.3,11.7,3.2,15,8.4,3.5,5.6,6.7,11.6,9.1,17.7,5.6,14,10.1,28.4,16.3,42.1,9.9,21.9,28.5,32.4,52.5,30.5,10.5-.8,20.7-3.2,28.3-13.1-1.7-.3-3-1-3.8-.7ZM81,116.8c-9,.2-18,0-27.6,0,0-15.8,0-30.9,0-46,0-13.7,0-27.4.1-41.1,0-1.4,1.2-3.7,2.3-4.1,12.2-4.1,24.8-5.4,37.1-1.3,16.6,5.5,23.8,18.8,25.9,35.1,1.4,10.5,1,21.1-2.5,31.4-5.8,16.7-17.7,25.7-35.3,26.1Z"></path><path class="st0" d="M319.4,173.5c-1.5,2-2.7,4.2-4.3,6.1-15.4,18.6-45.5,22-66.7,6.9-20.4-14.5-26.5-36.1-27.8-60.3h100.4c.7-19.3-9.9-40.7-31.2-50.5-26-12-59.9-5.1-79.7,16.8-21.4,23.7-26.1,51.8-18.8,81.9,6,24.5,21.7,41.3,46.4,47.8,25.4,6.6,49,3,68.3-16.6,9.3-9.4,14.6-20.9,16.2-34.6-1,.8-2.1,1.5-2.9,2.5ZM227.3,91.4c10.8-17,34.1-17.5,45.5-1,5.9,8.6,8.3,18.3,9.2,28.8h-61.4c.2-10,1.4-19.4,6.7-27.8Z"></path><path class="st0" d="M620.3,7.5V1.2c-17.1,5.8-33.7,11.3-49.3,16.6,3.1,7.6,6.4,14.4,8.5,21.5,1.3,4.7,1.1,9.9,1.1,14.9,0,43.3,0,86.7,0,130,0,5.3-.2,10.6-1.4,15.8-1.5,7-4,13.8-6,20.6h55.9c-8-12.8-8.8-26.5-8.8-40.5,0-57.5,0-115,0-172.6Z"></path><path class="st0" d="M547.8,7.4c0-1.8,0-3.7,0-6.2-17.1,5.8-33.6,11.3-51,17.2,9.3,9.5,11.4,20.7,11.5,32.4,0,45.5,0,91,0,136.5,0,11.2-2,22-7.9,31.8-.2.3,0,.9,0,1.6h56.5c-8.5-14.2-9-29-9-44.1,0-56.4,0-112.8,0-169.3Z"></path><path class="st0" d="M741.4,140.3c-10-6.7-21-10.7-32.4-14.2-8.4-2.6-16.8-5.6-24.8-9.3-8.9-4.1-11.9-12-10.4-21.4,1.4-8.8,6.9-14.6,15.4-16.9,12.1-3.3,22.8.6,32.4,7.9,11.1,8.4,18.7,19.4,24,32.2.6,1.5,1.9,2.6,2.8,3.9.5-.3.9-.5,1.4-.8,0-12.9,0-25.8-.1-38.8,0-1.2-1.6-2.9-2.9-3.4-17.8-7.1-36-11.3-55.5-8.9-24.6,3-42.3,18.6-45,42.8-1.6,14.6,2.7,27.7,15.5,36.9,9.5,6.8,20.2,10.9,31.3,14.2,8.4,2.5,17,4.9,25,8.5,10.3,4.6,14.4,13.3,12.6,23.6-2,11.1-10.1,18.9-20.8,20.4-12.6,1.8-23.3-2.5-33.1-9.8-11.6-8.6-19.3-20.1-24.7-33.4-.6-1.5-1.8-2.8-2.8-4.2-.6.3-1.1.6-1.7.9,0,12.9.1,25.9,0,38.8,0,3.5,1.1,5.2,4.3,6.6,16.3,6.8,33.3,9.3,50.7,8.9,13.5-.3,26.2-3.5,37.7-10.8,9.1-5.8,15.3-13.8,17.5-24.3,1.3-6.3,1.7-13,1.1-19.5-1-12.6-6.7-22.8-17.4-29.9Z"></path><path class="st0" d="M477.6,54.2c0-11.2-9.1-20.3-20.3-20.3h-38v40.5h38c11.2,0,20.3-9.1,20.3-20.3Z"></path><path class="st0" d="M381.4,74.5s0,0,0,0c-11.2,0-20.3-9.1-20.3-20.3s0-1.8.2-2.7c0,0,0-.1,0-.2,0-.3,0-.6.1-.8,0,0,0,0,0,0,1.8-9.4,10-16.5,19.9-16.5h38V.9c-4.1,0-2.6-.2-6.4,0-17.4,1.1-33,6.2-44.8,20-7.7,9-11.8,19.7-14.7,30.9-3.2,11.8-9.3,21.3-20.8,26.7-.6.3-1.1.9-2.1,1.8,11.9,5.8,13.4,16.1,13.3,27.4-.2,20.9,0,40.8,0,61.7,0,17.4,1.3,35-8.8,51.2h57.2c-9.5-15.4-8.9-31.9-8.9-48.4,0-18.7,0-29,0-47.7v-39.2h23.3c9,0,9.7,0,11.6-7.5h0s.9-3.3.9-3.3h-37.9s0,0,0,0Z"></path></svg> 