<?xml version="1.0" encoding="UTF-8"?> <svg xmlns="http://www.w3.org/2000/svg" xmlns:xlink="http://www.w3.org/1999/xlink" width="200px" height="90px" viewBox="0 0 199 90" version="1.1"><g id="surface1"><path style=" stroke:none;fill-rule:nonzero;fill:rgb(20.784314%,29.803923%,22.745098%);fill-opacity:1;" d="M 32.0625 58.324219 C 31.613281 57.554688 30.964844 56.8125 30.121094 56.089844 C 29.269531 55.363281 28.519531 54.789062 27.859375 54.363281 C 27.199219 53.941406 26.265625 53.480469 25.054688 52.992188 C 23.847656 52.5 22.890625 52.140625 22.191406 51.90625 C 21.492188 51.671875 20.460938 51.339844 19.105469 50.917969 C 15.792969 49.894531 13.554688 48.949219 12.386719 48.078125 C 11.21875 47.203125 10.636719 46.0625 10.636719 44.660156 C 10.636719 43.339844 11.15625 42.265625 12.195312 41.433594 C 13.238281 40.605469 14.667969 40.1875 16.496094 40.1875 C 20.398438 40.1875 23.246094 42.101562 25.03125 45.9375 L 32.417969 41.65625 C 30.890625 38.507812 28.753906 36.046875 26.019531 34.28125 C 23.277344 32.515625 20.105469 31.628906 16.5 31.628906 C 12.46875 31.628906 9.019531 32.832031 6.152344 35.238281 C 3.285156 37.644531 1.851562 40.871094 1.851562 44.914062 C 1.851562 46.957031 2.210938 48.746094 2.933594 50.277344 C 3.65625 51.8125 4.707031 53.078125 6.085938 54.078125 C 7.460938 55.078125 8.84375 55.875 10.226562 56.46875 C 11.601562 57.066406 13.289062 57.660156 15.289062 58.257812 C 18.898438 59.28125 21.402344 60.226562 22.800781 61.097656 C 24.203125 61.96875 24.90625 63.195312 24.90625 64.769531 C 24.90625 66.132812 24.332031 67.261719 23.1875 68.15625 C 22.042969 69.050781 20.238281 69.5 17.773438 69.5 C 12.675781 69.5 9.257812 67.222656 7.519531 62.664062 L 0 67.074219 C 1.230469 70.480469 3.351562 73.171875 6.367188 75.152344 C 9.382812 77.132812 13.097656 78.121094 17.511719 78.121094 C 22.308594 78.121094 26.207031 76.910156 29.195312 74.484375 C 32.1875 72.054688 33.6875 68.78125 33.6875 64.648438 C 33.6875 63.375 33.527344 62.191406 33.210938 61.105469 C 32.890625 60.019531 32.507812 59.09375 32.066406 58.328125 Z M 32.0625 58.324219 "></path><path style=" stroke:none;fill-rule:nonzero;fill:rgb(20.784314%,29.803923%,22.745098%);fill-opacity:1;" d="M 56.292969 44.402344 C 51.832031 44.402344 48.394531 45.960938 45.976562 49.066406 L 45.976562 45.296875 L 37.761719 45.296875 L 37.761719 90 L 45.976562 90 L 45.976562 73.460938 C 48.398438 76.570312 51.835938 78.121094 56.292969 78.121094 C 60.746094 78.121094 64.238281 76.496094 67.277344 73.238281 C 70.3125 69.980469 71.828125 65.988281 71.828125 61.265625 C 71.828125 56.539062 70.3125 52.546875 67.277344 49.289062 C 64.242188 46.035156 60.578125 44.40625 56.292969 44.40625 Z M 61.097656 67.746094 C 59.421875 69.425781 57.3125 70.265625 54.761719 70.265625 C 52.210938 70.265625 50.113281 69.425781 48.457031 67.746094 C 46.800781 66.0625 45.972656 63.902344 45.972656 61.261719 C 45.972656 58.617188 46.800781 56.460938 48.457031 54.777344 C 50.113281 53.097656 52.210938 52.253906 54.761719 52.253906 C 57.3125 52.253906 59.417969 53.097656 61.097656 54.777344 C 62.773438 56.457031 63.613281 58.617188 63.613281 61.261719 C 63.613281 63.902344 62.773438 66.0625 61.097656 67.746094 Z M 61.097656 67.746094 "></path><path style=" stroke:none;fill-rule:nonzero;fill:rgb(20.784314%,29.803923%,22.745098%);fill-opacity:1;" d="M 84.566406 45.296875 L 76.347656 45.296875 L 76.347656 77.226562 L 84.566406 77.226562 L 84.566406 61.964844 C 84.566406 58.898438 85.550781 56.707031 87.527344 55.386719 C 89.5 54.070312 91.738281 53.558594 94.242188 53.855469 L 94.242188 44.660156 C 92.078125 44.660156 90.113281 45.167969 88.351562 46.191406 C 86.589844 47.214844 85.328125 48.746094 84.566406 50.792969 Z M 84.566406 45.296875 "></path><path style=" stroke:none;fill-rule:nonzero;fill:rgb(20.784314%,29.803923%,22.745098%);fill-opacity:1;" d="M 111.695312 44.402344 C 106.980469 44.402344 103 46.03125 99.753906 49.285156 C 96.503906 52.542969 94.882812 56.53125 94.882812 61.261719 C 94.882812 65.988281 96.503906 69.976562 99.753906 73.234375 C 103 76.492188 106.980469 78.117188 111.695312 78.117188 C 116.402344 78.117188 120.394531 76.492188 123.664062 73.234375 C 126.933594 69.976562 128.570312 65.984375 128.570312 61.261719 C 128.570312 56.535156 126.9375 52.542969 123.664062 49.285156 C 120.394531 46.03125 116.402344 44.402344 111.695312 44.402344 Z M 117.871094 67.585938 C 116.214844 69.246094 114.15625 70.074219 111.695312 70.074219 C 109.230469 70.074219 107.179688 69.246094 105.546875 67.585938 C 103.914062 65.921875 103.09375 63.816406 103.09375 61.261719 C 103.09375 58.703125 103.914062 56.597656 105.546875 54.9375 C 107.179688 53.273438 109.230469 52.445312 111.695312 52.445312 C 114.15625 52.445312 116.214844 53.273438 117.871094 54.9375 C 119.527344 56.597656 120.355469 58.703125 120.355469 61.261719 C 120.355469 63.816406 119.527344 65.921875 117.871094 67.585938 Z M 117.871094 67.585938 "></path><path style=" stroke:none;fill-rule:nonzero;fill:rgb(20.784314%,29.803923%,22.745098%);fill-opacity:1;" d="M 154.105469 62.539062 C 154.105469 65.175781 153.46875 67.15625 152.195312 68.476562 C 150.921875 69.796875 149.222656 70.457031 147.097656 70.457031 C 145.191406 70.457031 143.660156 69.890625 142.511719 68.765625 C 141.367188 67.636719 140.792969 66.007812 140.792969 63.878906 L 140.792969 45.296875 L 132.578125 45.296875 L 132.578125 64.902344 C 132.578125 69.03125 133.714844 72.269531 135.984375 74.609375 C 138.253906 76.953125 141.132812 78.121094 144.617188 78.121094 C 148.945312 78.121094 152.109375 76.632812 154.105469 73.652344 L 154.105469 77.226562 L 162.320312 77.226562 L 162.320312 45.296875 L 154.105469 45.296875 L 154.105469 62.542969 Z M 154.105469 62.539062 "></path><path style=" stroke:none;fill-rule:nonzero;fill:rgb(20.784314%,29.803923%,22.745098%);fill-opacity:1;" d="M 198.847656 14.53125 C 198.53125 9.4375 196.566406 4.597656 194.351562 0 C 193.625 2.800781 191.609375 5.105469 189.328125 6.875 C 187.046875 8.648438 184.460938 9.980469 182.050781 11.578125 C 179.640625 13.171875 177.347656 15.101562 176.019531 17.675781 C 174.902344 19.839844 174.542969 22.332031 174.617188 24.765625 C 174.691406 27.203125 175.339844 29.941406 176.359375 32.292969 C 176.824219 30.523438 178.128906 28.796875 180.167969 27.273438 C 191.59375 18.71875 192.914062 11.824219 192.960938 11.554688 C 191.984375 17.800781 188.929688 20.902344 185.984375 23.765625 C 183.84375 25.851562 182.144531 27.386719 180.054688 29.519531 C 176.976562 32.652344 176.214844 35.941406 176.023438 37.441406 L 174.269531 37.96875 C 174.0625 37.054688 173.1875 34.195312 170.039062 31.832031 C 168.125 30.398438 166.597656 29.386719 164.652344 27.992188 C 161.972656 26.082031 159.183594 23.992188 157.664062 19.160156 C 157.730469 19.367188 159.601562 24.671875 169.679688 30.066406 C 171.476562 31.027344 172.71875 32.238281 173.300781 33.585938 C 173.828125 31.601562 174.011719 29.351562 173.777344 27.410156 C 173.546875 25.472656 172.960938 23.542969 171.816406 21.964844 C 170.453125 20.089844 168.402344 18.835938 166.308594 17.863281 C 164.207031 16.890625 162.003906 16.140625 159.984375 15.015625 C 157.960938 13.894531 156.089844 12.308594 155.175781 10.179688 C 153.976562 14.085938 152.996094 18.15625 153.359375 22.234375 C 153.71875 26.308594 155.617188 30.421875 159.078125 32.582031 C 162.710938 34.847656 167.550781 33.734375 170.339844 34.132812 C 172.746094 34.476562 173.6875 37.359375 173.890625 38.082031 L 171.367188 38.84375 L 171.367188 45.292969 L 165.828125 45.292969 L 165.828125 53.214844 L 171.367188 53.214844 L 171.367188 66.496094 C 171.367188 70.882812 172.523438 73.925781 174.835938 75.628906 C 177.148438 77.328125 181.132812 77.863281 186.777344 77.222656 L 186.777344 69.753906 C 185.207031 69.835938 183.890625 69.847656 182.832031 69.785156 C 181.769531 69.722656 180.960938 69.433594 180.410156 68.921875 C 179.859375 68.414062 179.582031 67.605469 179.582031 66.496094 L 179.582031 53.214844 L 186.777344 53.214844 L 186.777344 45.292969 L 179.582031 45.292969 L 179.582031 36.355469 L 176.589844 37.261719 C 176.871094 35.828125 177.710938 33.132812 180.121094 32.410156 C 183.492188 31.398438 189.671875 31.855469 193.730469 28.378906 C 197.601562 25.058594 199.167969 19.625 198.855469 14.53125 Z M 198.847656 14.53125 "></path></g></svg> 